<svg width="24" height="24" fill="none" xmlns="http://www.w3.org/2000/svg"><rect x="2.996" y="2.996" width="18.008" height="18.008" rx="3" stroke="#222" stroke-width="1.5" stroke-linecap="round" stroke-linejoin="round"/><path d="M21.004 7.998H2.996M17.302 11.5a.05.05 0 11-.05-.05m0 0a.05.05 0 01.05.05m-3.502 0a.05.05 0 11-.05-.05m0 0a.05.05 0 01.05.05m-3.502 0a.05.05 0 11-.05-.05m0 0a.05.05 0 01.05.05m-3.501 3.001a.05.05 0 11-.05-.05m0 0a.05.05 0 01.05.05m3.501 0a.05.05 0 11-.05-.05m0 0a.05.05 0 01.05.05m3.502 0a.05.05 0 11-.05-.05m0 0a.05.05 0 01.05.05m3.502 0a.05.05 0 11-.05-.05m0 0a.05.05 0 01.05.05m0 3.001a.05.05 0 11-.05-.05m0 0a.05.05 0 01.05.05m-3.502 0a.05.05 0 11-.05-.05m0 0a.05.05 0 01.05.05m-3.502 0a.05.05 0 11-.05-.05m0 0a.05.05 0 01.05.05m-3.501 0a.05.05 0 11-.05-.05m0 0a.05.05 0 01.05.05" stroke="#222" stroke-width="1.5" stroke-linecap="round" stroke-linejoin="round"/></svg>