<svg width="75" height="19" fill="none" xmlns="http://www.w3.org/2000/svg"><path fill-rule="evenodd" clip-rule="evenodd" d="M75 9.34v-.13h-3.368v.16c0 3.333-2.733 6.037-6.1 6.037-3.368 0-6.1-2.704-6.1-6.037 0-3.333 2.732-6.037 6.1-6.037h.1V0h-.1c-5.224 0-9.469 4.201-9.469 9.37s4.245 9.37 9.469 9.37c5.223 0 9.468-4.2 9.468-9.37v-.03zm-43.752-9l-6.09 18.06h3.479l.685-2.025c.101-.29.273-.469.646-.469h5.566c.373 0 .554.18.645.47l.686 2.025h3.478L34.253.339h-3.005zm3.176 12.423h-3.357c-.353 0-.555-.21-.434-.569l1.765-5.249c.161-.469.554-.469.705 0l1.745 5.249c.131.38-.07.569-.424.569zm16.235-1.547c.293.559.746.44.746-.18V.34h3.358v18.052h-4.064L44.902 7.524c-.293-.559-.747-.44-.747.18V18.4h-3.358V.339h4.266l5.596 10.877zm-33.426 3.393V.339h-3.358v18.062h10.79v-3.153h-6.776a.619.619 0 01-.656-.64zm-5.214-9.29c0 1.526-.665 2.774-1.825 3.612 1.382.918 2.209 2.475 2.209 4.22 0 3.035-2.189 5.25-5.113 5.25H0V.339h6.927c3.146 0 5.092 2.046 5.092 4.98zM3.832 3.313c-.293 0-.474.18-.474.469v3.433c0 .279.181.489.474.489h2.48c1.25 0 2.138-.948 2.138-2.196 0-1.227-.877-2.195-2.138-2.195h-2.48zm.04 12.074h2.49c1.483 0 2.4-1.028 2.41-2.375 0-1.327-.927-2.335-2.4-2.335h-2.5c-.302 0-.514.22-.514.53v3.671c0 .3.222.51.514.51z" fill="#222"/></svg>